<svg width="36" height="39" viewBox="0 0 36 39" fill="none" xmlns="http://www.w3.org/2000/svg">
  <circle cx="18" cy="21" r="17.5" stroke="#5C6AC4"/>
  <path d="M23.0039 21.0156C23.2383 21.0469 23.4023 21.1016 23.4961 21.1797C23.6055 21.2578 23.6758 21.3594 23.707 21.4844C23.7383 21.5938 23.7461 21.7188 23.7305 21.8594C23.7305 22 23.7305 22.1406 23.7305 22.2812C23.4961 22.4375 23.1992 22.5703 22.8398 22.6797C22.4961 22.7734 22.1133 22.8516 21.6914 22.9141C21.2695 22.9609 20.8242 23 20.3555 23.0312C19.9023 23.0469 19.4492 23.0625 18.9961 23.0781C18.918 23.5156 18.8242 23.9844 18.7148 24.4844C18.6055 24.9688 18.4258 25.5625 18.1758 26.2656C17.957 26.75 17.707 27.0938 17.4258 27.2969C17.1445 27.4844 16.8477 27.5781 16.5352 27.5781C16.2383 27.5781 15.9336 27.5078 15.6211 27.3672C15.3086 27.2109 15.0117 27.0391 14.7305 26.8516C14.6992 26.6484 14.6914 26.4062 14.707 26.125C14.7227 25.8438 14.7461 25.5469 14.7773 25.2344C14.8086 24.9062 14.8477 24.5859 14.8945 24.2734C14.957 23.9453 15.0117 23.625 15.0586 23.3125C14.5586 23.3906 14.1523 23.4609 13.8398 23.5234C13.543 23.5859 13.332 23.6406 13.207 23.6875C12.9102 23.6719 12.6758 23.6172 12.5039 23.5234C12.332 23.4297 12.1914 23.3203 12.082 23.1953C11.9727 23.0547 11.8789 22.8984 11.8008 22.7266C11.7227 22.5547 11.6289 22.375 11.5195 22.1875C11.582 22.0625 11.5898 21.8828 11.543 21.6484C11.5117 21.4141 11.4258 21.2344 11.2852 21.1094C11.4102 21.0938 11.5039 21.0078 11.5664 20.8516C11.6289 20.6797 11.6289 20.5547 11.5664 20.4766C11.8164 20.4141 12.082 20.375 12.3633 20.3594C12.6602 20.3281 12.9492 20.3047 13.2305 20.2891C13.5117 20.2734 13.7773 20.25 14.0273 20.2188C14.2773 20.1719 14.4961 20.1016 14.6836 20.0078C14.9023 20.0078 15.1055 20.0078 15.293 20.0078C15.4961 19.9922 15.707 19.9844 15.9258 19.9844C15.9727 19.7812 15.9648 19.6094 15.9023 19.4688C15.8398 19.3281 15.8242 19.2031 15.8555 19.0938C15.8867 19.0156 15.9414 18.9688 16.0195 18.9531C16.1133 18.9219 16.168 18.8672 16.1836 18.7891C16.2461 18.5859 16.2617 18.4297 16.2305 18.3203C16.1992 18.1953 16.2305 18.0391 16.3242 17.8516C16.4023 17.7266 16.5039 17.5312 16.6289 17.2656C16.7695 17 16.8242 16.7188 16.793 16.4219C16.9492 16.3125 17.0898 16.1875 17.2148 16.0469C17.3555 15.9062 17.4961 15.7812 17.6367 15.6719C17.793 15.5469 17.957 15.4453 18.1289 15.3672C18.3164 15.2734 18.543 15.2266 18.8086 15.2266C18.9492 15.3984 19.0508 15.5625 19.1133 15.7188C19.1758 15.875 19.2383 16.0234 19.3008 16.1641C19.3633 16.3047 19.4414 16.4375 19.5352 16.5625C19.6445 16.6875 19.8008 16.8047 20.0039 16.9141C20.0039 17.0547 19.9805 17.2266 19.9336 17.4297C19.8867 17.6328 19.8477 17.8359 19.8164 18.0391C19.7852 18.2422 19.7773 18.4219 19.793 18.5781C19.8086 18.7344 19.8867 18.8438 20.0273 18.9062C19.9648 19.0781 19.9023 19.25 19.8398 19.4219C19.793 19.5781 19.7461 19.7344 19.6992 19.8906C19.9648 19.9375 20.2695 19.9688 20.6133 19.9844C20.957 19.9844 21.2852 20.0156 21.5977 20.0781C21.9102 20.125 22.1914 20.2188 22.4414 20.3594C22.707 20.4844 22.8945 20.7031 23.0039 21.0156Z" fill="#5C6AC4"/>
</svg>
